<svg xmlns="http://www.w3.org/2000/svg" x="0px" y="0px" width="24" height="24" viewBox="0,0,256,256"
style="fill:#000000;">
<g fill="#ffffff" fill-rule="nonzero" stroke="none" stroke-width="1" stroke-linecap="butt" stroke-linejoin="miter" stroke-miterlimit="10" stroke-dasharray="" stroke-dashoffset="0" font-family="none" font-weight="none" font-size="none" text-anchor="none" style="mix-blend-mode: normal"><g transform="scale(10.66667,10.66667)"><path d="M12,2c-5.514,0 -10,4.486 -10,10c0,5.514 4.486,10 10,10c5.514,0 10,-4.486 10,-10c0,-5.514 -4.486,-10 -10,-10zM12,4c4.411,0 8,3.589 8,8c0,4.411 -3.589,8 -8,8c-4.411,0 -8,-3.589 -8,-8c0,-4.411 3.589,-8 8,-8zM11,8v3h-3v2h3v3h2v-3h3v-2h-3v-3z"></path></g></g>
</svg>